<svg width="138" height="32" viewBox="0 0 138 32" fill="none" xmlns="http://www.w3.org/2000/svg">
<g clip-path="url(#clip0_785_19)">
<path d="M25.2911 15.5806C25.2911 20.6119 23.7331 24.7274 20.8529 27.5634C20.2534 28.1628 19.5733 28.7038 18.8172 29.1846C14.9121 27.1853 12.2311 23.0524 12.2311 18.2805C12.2311 17.5972 12.2865 16.9266 12.394 16.2765L15.9133 18.116L14.727 10.8229L14.3 8.19727L14.2573 7.93787L4.40972 12.8189L7.29471 14.3247C6.47856 15.9728 6.02146 17.836 6.02146 19.8115C6.02146 25.0643 9.27181 29.542 13.827 31.2566C11.8547 31.7469 9.64034 32 7.22353 32C4.38758 32 2.01032 31.8624 0 31.6346V1.3138C2.42472 0.94843 5.30337 0.673218 8.45883 0.673218C14.175 0.673218 18.2463 2.00025 20.943 4.51354C23.6857 7.02841 25.2911 10.5967 25.2911 15.5806Z" fill="#38A176"/>
<path d="M26.8728 7.2182V11.2293H31.5625V25.455L35.7318 23.3798V11.2293H40.4215V7.2182H26.8728Z" fill="#38A176"/>
<path d="M52.4326 18.7597C54.4397 17.7427 55.7952 15.7102 55.7952 13.4706C55.7952 10.0051 53.0067 7.2182 49.5397 7.2182H42.2434V25.3443L42.6562 25.1371L46.4143 23.2659V19.4636H48.3946L51.8331 25.4566H56.314L52.431 18.7597H52.4326ZM49.5397 15.8146H46.4143V11.125H49.5397C50.688 11.125 51.6244 12.142 51.6244 13.4706C51.6244 14.7992 50.688 15.8146 49.5397 15.8146Z" fill="#38A176"/>
<path d="M68.221 7.2182H62.9066L56.7048 25.4581H61.2648L62.1774 22.5905H68.9518L69.8644 25.4581H74.4244L68.2226 7.2182H68.221ZM63.4286 18.6838L65.5638 11.987L67.7023 18.6838H63.4286Z" fill="#38A176"/>
<path d="M84.0378 21.757C80.808 21.757 78.7234 19.5933 78.7234 16.3366C78.7234 13.0799 80.808 10.9178 84.0378 10.9178C85.8884 10.9178 87.4511 11.7497 88.2593 13.1574L91.8561 11.0728C90.2665 8.49304 87.3483 6.85126 84.0378 6.85126C78.5415 6.85126 74.5557 10.9684 74.5557 16.3366C74.5557 21.7048 78.5431 25.8219 84.0378 25.8219C87.3736 25.8219 90.2934 24.1786 91.8561 21.6004L88.2593 19.5158C87.478 20.9235 85.8884 21.757 84.0378 21.757Z" fill="#38A176"/>
<path d="M102.146 16.1025L108.298 7.21661H103.554L97.9788 15.1361V7.21661H97.906L93.811 9.25698V25.4565H97.9803V17.012L103.818 25.4565H108.56L102.15 16.1025H102.146Z" fill="#38A176"/>
<path d="M114.289 21.4438V18.2125H120.804V14.2519H114.289V11.2293H121.454V7.2182H110.12V25.4581H121.585V21.4454H114.289V21.4438Z" fill="#38A176"/>
<path d="M134.117 18.7597C136.124 17.7427 137.478 15.7102 137.478 13.4706C137.478 10.0051 134.69 7.2182 131.226 7.2182H123.929V25.4581L124.572 25.1386L128.099 23.3798V19.4636H130.079L133.519 25.4566H138L134.117 18.7597ZM131.224 15.8146H128.097V11.125H131.224C132.369 11.125 133.309 12.142 133.309 13.4706C133.309 14.7992 132.369 15.8146 131.224 15.8146Z" fill="#38A176"/>
</g>
<defs>
<clipPath id="clip0_785_19">
<rect width="138" height="31.3268" fill="white" transform="translate(0 0.673218)"/>
</clipPath>
</defs>
</svg>
